<mxfile host="app.diagrams.net" modified="2022-05-30T10:15:28.760Z" agent="5.0 (Macintosh; Intel Mac OS X 10_15_7) AppleWebKit/537.36 (KHTML, like Gecko) Chrome/102.0.5005.61 Safari/537.36" etag="08VNyHKB7fbGmlXJoofl" version="18.1.2" type="github">
  <diagram id="LCc6Xw8cCYnN6ix8_E-F" name="第 1 页">
    <mxGraphModel dx="724" dy="568" grid="1" gridSize="10" guides="1" tooltips="1" connect="1" arrows="1" fold="1" page="1" pageScale="1" pageWidth="827" pageHeight="1169" math="0" shadow="0">
      <root>
        <mxCell id="0" />
        <mxCell id="1" parent="0" />
        <mxCell id="JKGcQ82srxqqenNBn3Gt-1" value="&lt;h1&gt;&lt;br&gt;&lt;/h1&gt;" style="rounded=0;whiteSpace=wrap;html=1;fillColor=#fa6800;fontColor=#000000;strokeColor=#C73500;" vertex="1" parent="1">
          <mxGeometry x="150" y="290" width="90" height="240" as="geometry" />
        </mxCell>
        <mxCell id="JKGcQ82srxqqenNBn3Gt-3" value="File Collector" style="text;strokeColor=none;fillColor=#fa6800;html=1;fontSize=24;fontStyle=1;verticalAlign=middle;align=center;rotation=90;fontColor=#000000;" vertex="1" parent="1">
          <mxGeometry x="80" y="371.25" width="230" height="77.5" as="geometry" />
        </mxCell>
        <mxCell id="JKGcQ82srxqqenNBn3Gt-4" value="&lt;font style=&quot;font-size: 20px;&quot;&gt;&lt;b&gt;MD5 checksum&lt;/b&gt;&lt;/font&gt;" style="rounded=0;whiteSpace=wrap;html=1;fillColor=#ffcd28;gradientColor=#ffa500;strokeColor=#d79b00;" vertex="1" parent="1">
          <mxGeometry x="337" y="292" width="190" height="110" as="geometry" />
        </mxCell>
        <mxCell id="JKGcQ82srxqqenNBn3Gt-6" value="&lt;span style=&quot;font-size: 20px;&quot;&gt;&lt;b&gt;Feature code&lt;/b&gt;&lt;/span&gt;" style="rounded=0;whiteSpace=wrap;html=1;fillColor=#ffcd28;gradientColor=#ffa500;strokeColor=#d79b00;" vertex="1" parent="1">
          <mxGeometry x="337" y="420" width="190" height="110" as="geometry" />
        </mxCell>
        <mxCell id="JKGcQ82srxqqenNBn3Gt-8" value="&lt;h1&gt;&lt;br&gt;&lt;/h1&gt;" style="rounded=0;whiteSpace=wrap;html=1;fillColor=#cdeb8b;strokeColor=#36393d;" vertex="1" parent="1">
          <mxGeometry x="538.75" y="290" width="90" height="240" as="geometry" />
        </mxCell>
        <mxCell id="JKGcQ82srxqqenNBn3Gt-9" value="Result Collector" style="text;strokeColor=none;fillColor=#cdeb8b;html=1;fontSize=24;fontStyle=1;verticalAlign=middle;align=center;rotation=90;" vertex="1" parent="1">
          <mxGeometry x="468.13" y="372.88" width="231.25" height="77.5" as="geometry" />
        </mxCell>
        <mxCell id="JKGcQ82srxqqenNBn3Gt-10" value="&lt;h1&gt;&lt;br&gt;&lt;/h1&gt;" style="rounded=0;whiteSpace=wrap;html=1;fillColor=#6a00ff;fontColor=#ffffff;strokeColor=#3700CC;" vertex="1" parent="1">
          <mxGeometry x="252" y="290" width="71.25" height="240" as="geometry" />
        </mxCell>
        <mxCell id="JKGcQ82srxqqenNBn3Gt-11" value="File Filter" style="text;strokeColor=none;fillColor=#6a00ff;html=1;fontSize=24;fontStyle=1;verticalAlign=middle;align=center;rotation=90;fontColor=#ffffff;" vertex="1" parent="1">
          <mxGeometry x="175.37" y="382.12" width="225.25" height="60.5" as="geometry" />
        </mxCell>
        <mxCell id="JKGcQ82srxqqenNBn3Gt-13" value="" style="endArrow=classic;html=1;rounded=0;fontSize=20;strokeWidth=2;" edge="1" parent="1">
          <mxGeometry width="50" height="50" relative="1" as="geometry">
            <mxPoint x="200" y="560" as="sourcePoint" />
            <mxPoint x="620" y="560" as="targetPoint" />
          </mxGeometry>
        </mxCell>
        <mxCell id="JKGcQ82srxqqenNBn3Gt-14" value="&lt;b&gt;step&lt;/b&gt;" style="text;html=1;strokeColor=none;fillColor=none;align=center;verticalAlign=middle;whiteSpace=wrap;rounded=0;fontSize=20;" vertex="1" parent="1">
          <mxGeometry x="146" y="545" width="60" height="30" as="geometry" />
        </mxCell>
      </root>
    </mxGraphModel>
  </diagram>
</mxfile>
